<svg xmlns="http://www.w3.org/2000/svg" viewBox="0 0 24 24"><defs/><g fill="none" fill-rule="evenodd"><path fill="#FF5D55" d="M4.929 19.071c-3.905-3.905-3.905-10.237 0-14.142 3.905-3.905 10.237-3.905 14.142 0 3.905 3.905 3.905 10.237 0 14.142-3.905 3.905-10.237 3.905-14.142 0z"/><path fill="#FFF" d="M12 10.586L9.172 7.757a1.002 1.002 0 00-1.415 0c-.39.39-.39 1.024 0 1.415L10.586 12l-2.829 2.828a1.002 1.002 0 000 1.415c.39.39 1.024.39 1.415 0L12 13.414l2.828 2.829c.391.39 1.024.39 1.415 0 .39-.39.39-1.024 0-1.415L13.414 12l2.829-2.828c.39-.391.39-1.024 0-1.415a1.002 1.002 0 00-1.415 0L12 10.586z"/></g></svg>