<svg xmlns="http://www.w3.org/2000/svg" viewBox="0 0 54 54"><defs/><g fill="none" fill-rule="evenodd" transform="translate(.012 .012)"><circle cx="26.988" cy="26.988" r="26.667" fill="#000" fill-opacity=".6" opacity=".6"/><path fill="#FFF" d="M22.098 22.769a8.208 8.208 0 01-1.24.098 6.834 6.834 0 01-1.653-.199c-.87-.215-1.658-.609-2.4-1.115-.096-.066-.273-.132-.34-.086-.086.06-.134.23-.136.355-.012.72-.006 1.439-.006 2.159v2.657l-.001 5.707c-.001.39.13.709.453.917 1.355.872 2.838 1.255 4.433 1.185 1.243-.055 2.443-.34 3.618-.733 1.308-.438 2.604-.91 3.908-1.361 1.14-.394 2.3-.716 3.502-.834 1.753-.17 3.406.158 4.92 1.123.35.222.497.133.497-.28v-5.724c0-1.6-.001-3.2.002-4.8.001-.458-.19-.79-.556-1.044-1.98-1.385-4.141-1.557-6.378-.912-1.305.376-2.577.88-3.849 1.369-1.564.6-3.107 1.262-4.774 1.518z"/></g></svg>