<svg xmlns="http://www.w3.org/2000/svg" xmlns:xlink="http://www.w3.org/1999/xlink" viewBox="0 0 40 40"><defs><path id="a" d="M27.918 3.45a1.644 1.644 0 1 1 2.846 1.645l-3.35 5.8a1.642 1.642 0 0 1-2.248.608 1.645 1.645 0 0 1-.597-2.252l3.34-5.8z"/></defs><clipPath id="b"><use xlink:href="#a" overflow="visible"/></clipPath><g clip-path="url(#b)"><defs><path id="c" d="M0 0h40v40H0z"/></defs><clipPath id="d"><use xlink:href="#c" overflow="visible"/></clipPath><path opacity=".75" clip-path="url(#d)" d="M19.346-2.378h16.64v19.102h-16.64z"/></g><defs><path id="e" d="M18.64 1.65a1.642 1.642 0 1 1 3.285 0v6.7a1.642 1.642 0 1 1-3.286 0v-6.7z"/></defs><clipPath id="f"><use xlink:href="#e" overflow="visible"/></clipPath><g clip-path="url(#f)"><defs><path id="g" d="M0 0h40v40H0z"/></defs><clipPath id="h"><use xlink:href="#g" overflow="visible"/></clipPath><path opacity=".7" clip-path="url(#h)" d="M13.64-5h13.285v20H13.64z"/></g><defs><path id="i" d="M35.235 9.49a1.643 1.643 0 1 1 1.644 2.846l-5.8 3.348c-.79.456-1.8.194-2.26-.597a1.642 1.642 0 0 1 .61-2.25l5.8-3.348z"/></defs><clipPath id="j"><use xlink:href="#i" overflow="visible"/></clipPath><g clip-path="url(#j)"><defs><path id="k" d="M0 0h40v40H0z"/></defs><clipPath id="l"><use xlink:href="#k" overflow="visible"/></clipPath><path opacity=".2" clip-path="url(#l)" d="M23.606 4.265h19.1v16.642h-19.1z"/></g><defs><path id="m" d="M38.325 18.452a1.642 1.642 0 1 1 0 3.286h-6.697a1.642 1.642 0 1 1 0-3.286h6.697z"/></defs><clipPath id="n"><use xlink:href="#m" overflow="visible"/></clipPath><g clip-path="url(#n)"><defs><path id="o" d="M0 0h40v40H0z"/></defs><clipPath id="p"><use xlink:href="#o" overflow="visible"/></clipPath><path opacity=".25" clip-path="url(#p)" d="M24.977 13.452h20v13.286h-20z"/></g><defs><path id="q" d="M36.878 27.838a1.644 1.644 0 1 1-1.644 2.846l-5.8-3.35a1.642 1.642 0 0 1-.608-2.248 1.645 1.645 0 0 1 2.252-.597l5.8 3.34z"/></defs><clipPath id="r"><use xlink:href="#q" overflow="visible"/></clipPath><g clip-path="url(#r)"><defs><path id="s" d="M0 0h40v40H0z"/></defs><clipPath id="t"><use xlink:href="#s" overflow="visible"/></clipPath><path opacity=".3" clip-path="url(#t)" d="M23.605 19.266h19.102v16.64H23.605z"/></g><defs><path id="u" d="M30.765 35.232a1.644 1.644 0 1 1-2.847 1.644l-3.348-5.8a1.644 1.644 0 1 1 2.847-1.644l3.348 5.8z"/></defs><clipPath id="v"><use xlink:href="#u" overflow="visible"/></clipPath><g clip-path="url(#v)"><defs><path id="w" d="M0 0h40v40H0z"/></defs><clipPath id="x"><use xlink:href="#w" overflow="visible"/></clipPath><path opacity=".35" clip-path="url(#x)" d="M19.346 23.603h16.642v19.1H19.346z"/></g><defs><path id="y" d="M21.925 38.35a1.644 1.644 0 1 1-3.286 0v-6.7c0-.912.72-1.65 1.64-1.65.91 0 1.64.734 1.64 1.65v6.697z"/></defs><clipPath id="z"><use xlink:href="#y" overflow="visible"/></clipPath><g clip-path="url(#z)"><defs><path id="A" d="M0 0h40v40H0z"/></defs><clipPath id="B"><use xlink:href="#A" overflow="visible"/></clipPath><path opacity=".4" clip-path="url(#B)" d="M13.64 25h13.285v20H13.64z"/></g><defs><path id="C" d="M12.627 36.875a1.644 1.644 0 1 1-2.846-1.644l3.35-5.8a1.64 1.64 0 0 1 2.25-.6 1.64 1.64 0 0 1 .6 2.25l-3.35 5.8z"/></defs><clipPath id="D"><use xlink:href="#C" overflow="visible"/></clipPath><g clip-path="url(#D)"><defs><path id="E" d="M0 0h40v40H0z"/></defs><clipPath id="F"><use xlink:href="#E" overflow="visible"/></clipPath><path opacity=".45" clip-path="url(#F)" d="M4.558 23.603h16.64v19.102H4.56z"/></g><defs><path id="G" d="M5.463 30.684a1.644 1.644 0 0 1-2.252-.597c-.45-.787-.18-1.79.61-2.25l5.8-3.348c.79-.46 1.8-.2 2.26.59.455.783.186 1.79-.61 2.25l-5.8 3.35z"/></defs><clipPath id="H"><use xlink:href="#G" overflow="visible"/></clipPath><g clip-path="url(#H)"><defs><path id="I" d="M0 0h40v40H0z"/></defs><clipPath id="J"><use xlink:href="#I" overflow="visible"/></clipPath><path opacity=".5" clip-path="url(#J)" d="M-2.01 19.265h19.102v16.642h-19.1z"/></g><defs><path id="K" d="M2.05 21.738a1.642 1.642 0 1 1 0-3.286h6.697a1.642 1.642 0 1 1 0 3.286H2.05z"/></defs><clipPath id="L"><use xlink:href="#K" overflow="visible"/></clipPath><g clip-path="url(#L)"><defs><path id="M" d="M0 0h40v40H0z"/></defs><clipPath id="N"><use xlink:href="#M" overflow="visible"/></clipPath><path opacity=".55" clip-path="url(#N)" d="M-4.6 13.452h20v13.286h-20z"/></g><defs><path id="O" d="M3.82 12.335a1.644 1.644 0 1 1 1.642-2.846l5.8 3.34a1.645 1.645 0 0 1 .61 2.25 1.648 1.648 0 0 1-2.253.595l-5.8-3.35z"/></defs><clipPath id="P"><use xlink:href="#O" overflow="visible"/></clipPath><g clip-path="url(#P)"><defs><path id="Q" d="M0 0h40v40H0z"/></defs><clipPath id="R"><use xlink:href="#Q" overflow="visible"/></clipPath><path opacity=".6" clip-path="url(#R)" d="M-2.01 4.265h19.103v16.64H-2.01z"/></g><defs><path id="S" d="M9.78 5.095a1.645 1.645 0 0 1 .598-2.252 1.647 1.647 0 0 1 2.25.608l3.348 5.8c.456.79.194 1.8-.597 2.26-.79.456-1.8.187-2.25-.61L9.78 5.1z"/></defs><clipPath id="T"><use xlink:href="#S" overflow="visible"/></clipPath><g clip-path="url(#T)"><defs><path id="U" d="M0 0h40v40H0z"/></defs><clipPath id="V"><use xlink:href="#U" overflow="visible"/></clipPath><path opacity=".65" clip-path="url(#V)" d="M4.557-2.377H21.2v19.1H4.556z"/></g></svg>